<?xml version="1.0" standalone="no"?>
<!DOCTYPE svg PUBLIC "-//W3C//DTD SVG 20010904//EN"
 "http://www.w3.org/TR/2001/REC-SVG-20010904/DTD/svg10.dtd">
<svg version="1.0" xmlns="http://www.w3.org/2000/svg"
 width="156.000000pt" height="156.000000pt" viewBox="0 0 156.000000 156.000000"
 preserveAspectRatio="xMidYMid meet">
<metadata>
Created by potrace 1.14, written by Peter Selinger 2001-2017
</metadata>
<g transform="translate(0.000000,156.000000) scale(0.100000,-0.100000)"
fill="#000000" stroke="none">
<path d="M648 1540 c-55 -19 -278 -142 -365 -201 -81 -56 -150 -164 -172 -267
-6 -30 -11 -154 -11 -286 0 -242 5 -278 46 -342 14 -20 19 -49 20 -110 3 -192
128 -325 313 -331 82 -2 148 17 207 62 29 22 46 27 107 28 78 3 75 2 272 117
50 29 110 64 135 78 148 82 235 195 259 337 13 79 13 354 0 429 -15 85 -60
173 -120 233 -46 46 -89 75 -239 160 -19 11 -57 33 -85 49 -77 45 -122 57
-220 60 -69 2 -104 -2 -147 -16z"/>
</g>
</svg>
